<svg width="24" height="24" viewBox="0 0 24 24" fill="none" xmlns="http://www.w3.org/2000/svg">
<g clip-path="url(#clip0_275_7186)">
<path d="M22.0109 7.98633H20.8975V12.6159H22.0109C22.5582 12.6159 23.0002 12.1806 23.0002 11.6415V8.96077C23.0002 8.42172 22.5561 7.98633 22.0109 7.98633Z" fill="#808080"/>
<path d="M5.40555 20.1417C5.53816 20.5025 5.94019 20.687 6.30643 20.5585L7.96085 19.9697C8.3271 19.839 8.51443 19.443 8.38393 19.0823L6.8979 15.2944H3.53223L5.40766 20.1438L5.40555 20.1417Z" fill="#808080"/>
<path d="M19.6427 3.03953L12.3705 6.14114H1.6504C1.29258 6.14114 1 6.42725 1 6.78178V13.8247C1 14.1792 1.29047 14.4653 1.6504 14.4653H12.3705L19.6427 17.5669C19.9037 17.6789 20.1184 17.54 20.1184 17.2601V3.34637C20.1184 3.06648 19.9059 2.92757 19.6427 3.03953Z" fill="#808080"/>
</g>
<defs>
<clipPath id="clip0_275_7186">
<rect width="22" height="17.6" fill="white" transform="translate(1 3)"/>
</clipPath>
</defs>
</svg>
