<svg width="25" height="24" viewBox="0 0 25 24" fill="none" xmlns="http://www.w3.org/2000/svg">
<path d="M17.8092 21.7514H2.65132V6.31562H11.4934V3.78931H2.65132C1.26184 3.78931 0.125 4.92615 0.125 6.31562V21.4735C0.125 22.863 1.26184 23.9998 2.65132 23.9998H17.8092C19.1987 23.9998 20.3355 22.863 20.3355 21.4735V12.6314H17.8092V21.7514Z" fill="#808080"/>
<path d="M20.3358 0H17.8095V3.78947H14.02C14.0327 3.80211 14.02 6.31579 14.02 6.31579H17.8095V10.0926C17.8221 10.1053 20.3358 10.0926 20.3358 10.0926V6.31579H24.1253V3.78947H20.3358V0Z" fill="#808080"/>
<path d="M15.283 8.84216H5.17773V11.3685H15.283V8.84216Z" fill="#808080"/>
<path d="M5.17773 12.6316V15.1579H15.283V12.6316H11.4935H5.17773Z" fill="#808080"/>
<path d="M15.283 16.421H5.17773V18.9473H15.283V16.421Z" fill="#808080"/>
</svg>
